<svg width="341" height="132" viewBox="0 0 341 132" fill="none" xmlns="http://www.w3.org/2000/svg">
<g filter="url(#filter0_d_4708_567)">
<g filter="url(#filter1_b_4708_567)">
<path d="M33 43.3857C33 32.833 33 27.5566 36.2783 24.2783C39.5566 21 44.833 21 55.3857 21H300.377C310.93 21 316.206 21 319.485 24.2783C322.763 27.5566 322.763 32.833 322.763 43.3857V79.6143C322.763 90.167 322.763 95.4434 319.485 98.7217C316.206 102 310.93 102 300.377 102H55.3857C44.833 102 39.5566 102 36.2783 98.7217C33 95.4434 33 90.167 33 79.6143V43.3857Z" fill="white" fill-opacity="0.5"/>
</g>
<rect x="251.696" y="50.115" width="41.2736" height="22.3857" rx="5.59642" fill="#AA4133" fill-opacity="0.2"/>
<path d="M260.34 62.9735V61.9487H262.541V62.9735H260.34ZM267.321 64.7114H263.132V63.8302L264.636 62.3094C265.081 61.8531 265.372 61.5375 265.509 61.3626C265.646 61.185 265.744 61.021 265.804 60.8707C265.864 60.7204 265.894 60.5647 265.894 60.4034C265.894 60.163 265.827 59.984 265.693 59.8665C265.562 59.749 265.386 59.6902 265.165 59.6902C264.932 59.6902 264.707 59.7435 264.488 59.8501C264.27 59.9567 264.041 60.1083 263.804 60.3051L263.115 59.4894C263.41 59.238 263.655 59.0604 263.849 58.9565C264.043 58.8527 264.255 58.7734 264.484 58.7188C264.714 58.6614 264.971 58.6327 265.255 58.6327C265.629 58.6327 265.96 58.701 266.247 58.8376C266.534 58.9743 266.756 59.1656 266.915 59.4115C267.073 59.6574 267.153 59.9389 267.153 60.2559C267.153 60.5319 267.103 60.7915 267.005 61.0347C266.909 61.2751 266.759 61.5224 266.554 61.7766C266.352 62.0307 265.994 62.3928 265.48 62.8628L264.71 63.5883V63.6457H267.321V64.7114ZM269.473 63.8302C269.33 64.3821 269.09 65.0366 268.751 65.7935H267.849C268.027 65.0667 268.165 64.3808 268.263 63.7359H269.411L269.473 63.8302ZM272.543 60.883C273.122 60.883 273.582 61.0456 273.924 61.3708C274.268 61.696 274.44 62.1414 274.44 62.707C274.44 63.3765 274.234 63.8916 273.822 64.2523C273.409 64.6131 272.819 64.7934 272.051 64.7934C271.384 64.7934 270.846 64.6855 270.436 64.4696V63.3752C270.652 63.4899 270.903 63.5842 271.19 63.658C271.477 63.729 271.749 63.7646 272.006 63.7646C272.779 63.7646 273.166 63.4476 273.166 62.8136C273.166 62.2097 272.765 61.9078 271.965 61.9078C271.82 61.9078 271.66 61.9228 271.485 61.9528C271.31 61.9802 271.168 62.0102 271.059 62.043L270.555 61.7725L270.78 58.7188H274.031V59.7927H271.891L271.78 60.9691L271.924 60.9404C272.09 60.9021 272.297 60.883 272.543 60.883ZM276.113 60.5141C276.113 60.8612 276.143 61.1208 276.203 61.2929C276.266 61.4623 276.366 61.547 276.502 61.547C276.765 61.547 276.896 61.2027 276.896 60.5141C276.896 59.831 276.765 59.4894 276.502 59.4894C276.366 59.4894 276.266 59.5741 276.203 59.7435C276.143 59.9102 276.113 60.1671 276.113 60.5141ZM277.929 60.5059C277.929 61.1344 277.807 61.6072 277.564 61.9241C277.321 62.2384 276.964 62.3955 276.494 62.3955C276.043 62.3955 275.695 62.2343 275.449 61.9118C275.203 61.5867 275.08 61.118 275.08 60.5059C275.08 59.2571 275.551 58.6327 276.494 58.6327C276.956 58.6327 277.31 58.7953 277.556 59.1205C277.804 59.4429 277.929 59.9047 277.929 60.5059ZM280.749 58.7188L277.425 64.7114H276.441L279.765 58.7188H280.749ZM280.31 62.9079C280.31 63.2549 280.34 63.5145 280.4 63.6867C280.463 63.8561 280.563 63.9408 280.7 63.9408C280.962 63.9408 281.093 63.5965 281.093 62.9079C281.093 62.2247 280.962 61.8832 280.7 61.8832C280.563 61.8832 280.463 61.9679 280.4 62.1373C280.34 62.304 280.31 62.5608 280.31 62.9079ZM282.126 62.8997C282.126 63.5255 282.004 63.9968 281.761 64.3138C281.518 64.6281 281.161 64.7852 280.691 64.7852C280.24 64.7852 279.892 64.624 279.646 64.3015C279.4 63.9763 279.277 63.5091 279.277 62.8997C279.277 61.6509 279.749 61.0265 280.691 61.0265C281.153 61.0265 281.507 61.1891 281.753 61.5143C282.002 61.8367 282.126 62.2985 282.126 62.8997Z" fill="#C61515"/>
<path d="M63.9419 43.938H66.1178C67.1093 43.938 67.8282 44.0799 68.2745 44.3636C68.724 44.6442 68.9488 45.0921 68.9488 45.7074C68.9488 46.125 68.8499 46.4677 68.6523 46.7355C68.4578 47.0033 68.198 47.1643 67.8728 47.2185V47.2664C68.3159 47.3652 68.6348 47.5501 68.8292 47.8211C69.0269 48.0921 69.1257 48.4523 69.1257 48.9018C69.1257 49.5394 68.8946 50.0368 68.4323 50.3938C67.9732 50.7509 67.3484 50.9294 66.5577 50.9294H63.9419V43.938ZM65.4244 46.7069H66.2851C66.6868 46.7069 66.977 46.6447 67.1555 46.5203C67.3372 46.396 67.4281 46.1904 67.4281 45.9035C67.4281 45.6357 67.3292 45.4444 67.1316 45.3296C66.9371 45.2116 66.6279 45.1527 66.2039 45.1527H65.4244V46.7069ZM65.4244 47.8832V49.7052H66.3904C66.7984 49.7052 67.0997 49.6271 67.2942 49.4709C67.4886 49.3147 67.5859 49.0756 67.5859 48.7536C67.5859 48.1734 67.1714 47.8832 66.3425 47.8832H65.4244ZM70.3451 44.201C70.3451 43.726 70.6098 43.4885 71.139 43.4885C71.6682 43.4885 71.9328 43.726 71.9328 44.201C71.9328 44.4274 71.8659 44.6043 71.732 44.7318C71.6012 44.8562 71.4036 44.9183 71.139 44.9183C70.6098 44.9183 70.3451 44.6792 70.3451 44.201ZM71.8659 50.9294H70.4073V45.5831H71.8659V50.9294ZM75.6533 49.863C75.9083 49.863 76.2144 49.8072 76.5714 49.6957V50.7812C76.208 50.9438 75.7617 51.0251 75.2325 51.0251C74.649 51.0251 74.2234 50.8784 73.9556 50.5851C73.691 50.2886 73.5587 49.8455 73.5587 49.2557V46.6782H72.8605V46.0613L73.6639 45.5735L74.0847 44.4449H75.0173V45.5831H76.5141V46.6782H75.0173V49.2557C75.0173 49.4629 75.0746 49.616 75.1894 49.7148C75.3074 49.8136 75.462 49.863 75.6533 49.863ZM79.828 51.0251C78.1639 51.0251 77.3318 50.1117 77.3318 48.2849C77.3318 47.3763 77.5581 46.6829 78.0109 46.2047C78.4636 45.7233 79.1123 45.4826 79.9572 45.4826C80.5756 45.4826 81.1304 45.6038 81.6213 45.8461L81.1909 46.9746C80.9614 46.8822 80.7478 46.8073 80.5501 46.7499C80.3525 46.6893 80.1548 46.659 79.9572 46.659C79.1984 46.659 78.819 47.1978 78.819 48.2754C78.819 49.3211 79.1984 49.8439 79.9572 49.8439C80.2377 49.8439 80.4975 49.8072 80.7366 49.7339C80.9758 49.6574 81.2149 49.5394 81.454 49.38V50.6282C81.218 50.778 80.9789 50.8816 80.7366 50.939C80.4975 50.9964 80.1947 51.0251 79.828 51.0251ZM83.8594 48.2467C83.8594 48.7759 83.9454 49.176 84.1176 49.447C84.2929 49.718 84.5767 49.8535 84.9688 49.8535C85.3577 49.8535 85.6367 49.7196 85.8057 49.4518C85.9778 49.1808 86.0639 48.7791 86.0639 48.2467C86.0639 47.7175 85.9778 47.3206 85.8057 47.0559C85.6335 46.7913 85.3514 46.659 84.9592 46.659C84.5703 46.659 84.2897 46.7913 84.1176 47.0559C83.9454 47.3174 83.8594 47.7143 83.8594 48.2467ZM87.5559 48.2467C87.5559 49.117 87.3264 49.7977 86.8673 50.2886C86.4082 50.7796 85.769 51.0251 84.9497 51.0251C84.4364 51.0251 83.9837 50.9135 83.5916 50.6903C83.1994 50.464 82.8982 50.1404 82.6877 49.7196C82.4773 49.2987 82.3721 48.8078 82.3721 48.2467C82.3721 47.3732 82.6001 46.6941 83.056 46.2095C83.5119 45.7249 84.1527 45.4826 84.9784 45.4826C85.4916 45.4826 85.9444 45.5942 86.3365 45.8174C86.7286 46.0405 87.0299 46.3609 87.2403 46.7786C87.4507 47.1962 87.5559 47.6856 87.5559 48.2467ZM88.6988 44.201C88.6988 43.726 88.9635 43.4885 89.4927 43.4885C90.0219 43.4885 90.2865 43.726 90.2865 44.201C90.2865 44.4274 90.2195 44.6043 90.0856 44.7318C89.9549 44.8562 89.7573 44.9183 89.4927 44.9183C88.9635 44.9183 88.6988 44.6792 88.6988 44.201ZM90.2195 50.9294H88.761V45.5831H90.2195V50.9294ZM96.6897 50.9294H95.2312V47.8067C95.2312 47.421 95.1626 47.1325 95.0256 46.9412C94.8885 46.7467 94.6701 46.6495 94.3704 46.6495C93.9623 46.6495 93.6674 46.7866 93.4857 47.0607C93.304 47.3317 93.2131 47.7828 93.2131 48.4141V50.9294H91.7546V45.5831H92.8688L93.0649 46.2669H93.1462C93.3088 46.0087 93.5319 45.8142 93.8157 45.6835C94.1026 45.5496 94.4278 45.4826 94.7912 45.4826C95.4129 45.4826 95.8847 45.6516 96.2067 45.9895C96.5287 46.3243 96.6897 46.8089 96.6897 47.4433V50.9294Z" fill="#312E52"/>
<path d="M71.2681 72.3832C71.2681 73.1797 70.98 73.821 70.4039 74.3069C69.8278 74.7879 69.0212 75.0759 67.9842 75.1711V76.7116H66.9546V75.2012C65.7322 75.1761 64.6601 74.9607 63.7383 74.5549V72.571C64.1742 72.7864 64.6977 72.9768 65.3089 73.1421C65.9251 73.3075 66.4737 73.4052 66.9546 73.4352V71.1056L66.4512 70.9103C65.4592 70.5195 64.7553 70.0962 64.3395 69.6403C63.9287 69.1794 63.7233 68.6108 63.7233 67.9344C63.7233 67.208 64.0064 66.6118 64.5725 66.1459C65.1436 65.675 65.9376 65.3894 66.9546 65.2893V64.1395H67.9842V65.2592C69.1314 65.3093 70.1684 65.5397 71.0953 65.9505L70.3889 67.709C69.6073 67.3884 68.8058 67.193 67.9842 67.1228V69.3397C68.9611 69.7154 69.6549 70.0411 70.0657 70.3166C70.4816 70.5921 70.7846 70.8952 70.975 71.2259C71.1704 71.5565 71.2681 71.9423 71.2681 72.3832ZM69.0062 72.4959C69.0062 72.2855 68.921 72.1076 68.7507 71.9623C68.5803 71.817 68.3248 71.6667 67.9842 71.5114V73.3826C68.6655 73.2674 69.0062 72.9718 69.0062 72.4959ZM65.9852 67.9344C65.9852 68.1549 66.0604 68.3377 66.2107 68.483C66.366 68.6233 66.614 68.7686 66.9546 68.9189V67.1529C66.3084 67.2481 65.9852 67.5086 65.9852 67.9344ZM76.4683 68.7986C77.5304 68.7986 78.3745 69.0967 79.0007 69.6929C79.632 70.289 79.9476 71.1056 79.9476 72.1427C79.9476 73.3701 79.5694 74.3144 78.8129 74.9757C78.0564 75.637 76.9743 75.9677 75.5665 75.9677C74.3441 75.9677 73.3572 75.7698 72.6057 75.374V73.3676C73.0015 73.578 73.4624 73.7508 73.9884 73.8861C74.5145 74.0164 75.0129 74.0815 75.4839 74.0815C76.9016 74.0815 77.6105 73.5003 77.6105 72.3381C77.6105 71.2309 76.8766 70.6773 75.4087 70.6773C75.1432 70.6773 74.8501 70.7049 74.5295 70.76C74.2089 70.8101 73.9483 70.8652 73.748 70.9253L72.8236 70.4293L73.237 64.8309H79.1961V66.7997H75.2734L75.0705 68.9564L75.3336 68.9038C75.6392 68.8337 76.0174 68.7986 76.4683 68.7986ZM88.5144 67.2882C88.5144 67.9745 88.3065 68.5582 87.8907 69.0391C87.4749 69.52 86.8912 69.8507 86.1397 70.031V70.0761C87.0265 70.1863 87.6978 70.4569 88.1537 70.8877C88.6096 71.3136 88.8375 71.8897 88.8375 72.6161C88.8375 73.6732 88.4543 74.4973 87.6878 75.0885C86.9213 75.6746 85.8266 75.9677 84.4038 75.9677C83.2115 75.9677 82.1544 75.7698 81.2326 75.374V73.3976C81.6585 73.6131 82.1269 73.7884 82.6379 73.9237C83.1489 74.0589 83.6549 74.1266 84.1558 74.1266C84.9224 74.1266 85.4885 73.9963 85.8542 73.7358C86.2199 73.4753 86.4028 73.057 86.4028 72.4808C86.4028 71.9648 86.1923 71.5991 85.7715 71.3837C85.3507 71.1683 84.6794 71.0606 83.7576 71.0606H82.9234V69.2796H83.7726C84.6243 69.2796 85.2455 69.1694 85.6362 68.9489C86.032 68.7235 86.2299 68.3402 86.2299 67.7992C86.2299 66.9675 85.7089 66.5517 84.6668 66.5517C84.3061 66.5517 83.9379 66.6118 83.5622 66.7321C83.1915 66.8523 82.7781 67.0602 82.3223 67.3558L81.2476 65.7552C82.2496 65.0338 83.4445 64.673 84.8322 64.673C85.9694 64.673 86.8662 64.9035 87.5224 65.3644C88.1837 65.8253 88.5144 66.4666 88.5144 67.2882ZM90.3179 74.7428C90.3179 74.322 90.4306 74.0038 90.6561 73.7884C90.8815 73.573 91.2097 73.4653 91.6405 73.4653C92.0563 73.4653 92.377 73.5755 92.6024 73.7959C92.8329 74.0164 92.9481 74.332 92.9481 74.7428C92.9481 75.1386 92.8329 75.4517 92.6024 75.6821C92.3719 75.9076 92.0513 76.0203 91.6405 76.0203C91.2197 76.0203 90.8941 75.9101 90.6636 75.6896C90.4332 75.4642 90.3179 75.1486 90.3179 74.7428ZM98.2309 64.6881C99.283 64.6881 100.13 64.9285 100.771 65.4095C101.417 65.8854 101.74 66.5292 101.74 67.3408C101.74 67.9019 101.585 68.4029 101.274 68.8437C100.964 69.2796 100.463 69.6703 99.7714 70.016C100.593 70.4569 101.182 70.9178 101.537 71.3987C101.898 71.8747 102.078 72.3982 102.078 72.9693C102.078 73.8711 101.725 74.5975 101.019 75.1486C100.313 75.6946 99.3832 75.9677 98.2309 75.9677C97.0286 75.9677 96.0842 75.7122 95.3979 75.2012C94.7115 74.6902 94.3684 73.9663 94.3684 73.0294C94.3684 72.4032 94.5337 71.8471 94.8643 71.3612C95.2 70.8752 95.736 70.4469 96.4725 70.0761C95.8463 69.6804 95.3954 69.257 95.1198 68.8061C94.8443 68.3553 94.7065 67.8618 94.7065 67.3257C94.7065 66.5392 95.0322 65.903 95.6834 65.417C96.3347 64.931 97.1839 64.6881 98.2309 64.6881ZM96.5176 72.8942C96.5176 73.325 96.6679 73.6607 96.9685 73.9011C97.269 74.1416 97.6799 74.2618 98.2009 74.2618C98.777 74.2618 99.2078 74.1391 99.4934 73.8936C99.779 73.6431 99.9217 73.315 99.9217 72.9092C99.9217 72.5735 99.779 72.2604 99.4934 71.9698C99.2129 71.6743 98.7545 71.3612 98.1182 71.0305C97.0511 71.5215 96.5176 72.1427 96.5176 72.8942ZM98.2159 66.3864C97.8201 66.3864 97.4995 66.4891 97.254 66.6945C97.0135 66.8949 96.8933 67.1654 96.8933 67.5061C96.8933 67.8067 96.9885 68.0772 97.1789 68.3177C97.3743 68.5531 97.7249 68.7961 98.2309 69.0466C98.7219 68.8162 99.0651 68.5807 99.2604 68.3402C99.4558 68.0998 99.5535 67.8217 99.5535 67.5061C99.5535 67.1604 99.4283 66.8874 99.1778 66.687C98.9273 66.4866 98.6067 66.3864 98.2159 66.3864ZM103.161 71.1507C103.161 68.9765 103.619 67.3583 104.536 66.2962C105.458 65.2341 106.835 64.7031 108.669 64.7031C109.295 64.7031 109.786 64.7407 110.142 64.8158V66.672C109.696 66.5718 109.255 66.5217 108.819 66.5217C108.023 66.5217 107.371 66.6419 106.865 66.8824C106.364 67.1228 105.989 67.4785 105.738 67.9495C105.488 68.4204 105.34 69.0892 105.295 69.9559H105.392C105.888 69.1042 106.682 68.6784 107.775 68.6784C108.757 68.6784 109.526 68.9865 110.082 69.6027C110.638 70.2189 110.916 71.0706 110.916 72.1577C110.916 73.33 110.585 74.2593 109.924 74.9457C109.263 75.627 108.346 75.9677 107.173 75.9677C106.362 75.9677 105.653 75.7798 105.047 75.4041C104.446 75.0283 103.98 74.4798 103.649 73.7583C103.323 73.0369 103.161 72.1677 103.161 71.1507ZM107.128 74.1115C107.624 74.1115 108.005 73.9462 108.271 73.6156C108.536 73.2799 108.669 72.804 108.669 72.1878C108.669 71.6517 108.544 71.2309 108.293 70.9253C108.048 70.6147 107.674 70.4594 107.173 70.4594C106.703 70.4594 106.299 70.6122 105.964 70.9178C105.633 71.2234 105.468 71.5791 105.468 71.9849C105.468 72.581 105.623 73.0845 105.934 73.4953C106.249 73.9061 106.647 74.1115 107.128 74.1115ZM119.28 67.2882C119.28 67.9745 119.072 68.5582 118.656 69.0391C118.24 69.52 117.656 69.8507 116.905 70.031V70.0761C117.792 70.1863 118.463 70.4569 118.919 70.8877C119.375 71.3136 119.603 71.8897 119.603 72.6161C119.603 73.6732 119.22 74.4973 118.453 75.0885C117.687 75.6746 116.592 75.9677 115.169 75.9677C113.977 75.9677 112.92 75.7698 111.998 75.374V73.3976C112.424 73.6131 112.892 73.7884 113.403 73.9237C113.914 74.0589 114.42 74.1266 114.921 74.1266C115.688 74.1266 116.254 73.9963 116.619 73.7358C116.985 73.4753 117.168 73.057 117.168 72.4808C117.168 71.9648 116.958 71.5991 116.537 71.3837C116.116 71.1683 115.445 71.0606 114.523 71.0606H113.689V69.2796H114.538C115.39 69.2796 116.011 69.1694 116.402 68.9489C116.797 68.7235 116.995 68.3402 116.995 67.7992C116.995 66.9675 116.474 66.5517 115.432 66.5517C115.071 66.5517 114.703 66.6118 114.327 66.7321C113.957 66.8523 113.543 67.0602 113.088 67.3558L112.013 65.7552C113.015 65.0338 114.21 64.673 115.597 64.673C116.735 64.673 117.631 64.9035 118.288 65.3644C118.949 65.8253 119.28 66.4666 119.28 67.2882ZM123.653 74.2017C123.393 75.2137 122.952 76.4136 122.331 77.8013H120.677C121.003 76.4687 121.256 75.2112 121.436 74.0289H123.541L123.653 74.2017ZM132.919 69.52C132.919 71.6843 132.463 73.2999 131.551 74.367C130.639 75.4341 129.259 75.9677 127.411 75.9677C126.759 75.9677 126.266 75.9326 125.93 75.8625V73.9988C126.351 74.104 126.792 74.1566 127.253 74.1566C128.029 74.1566 128.668 74.0439 129.169 73.8185C129.67 73.588 130.053 73.2298 130.319 72.7439C130.584 72.2529 130.737 71.5791 130.777 70.7224H130.687C130.396 71.1933 130.061 71.524 129.68 71.7143C129.299 71.9047 128.823 71.9999 128.252 71.9999C127.295 71.9999 126.541 71.6943 125.99 71.0831C125.439 70.4669 125.164 69.6127 125.164 68.5206C125.164 67.3433 125.497 66.414 126.163 65.7326C126.834 65.0463 127.746 64.7031 128.899 64.7031C129.71 64.7031 130.419 64.8935 131.025 65.2742C131.636 65.655 132.105 66.2086 132.43 66.935C132.756 67.6564 132.919 68.5181 132.919 69.52ZM128.944 66.5668C128.463 66.5668 128.087 66.7321 127.816 67.0627C127.546 67.3934 127.411 67.8693 127.411 68.4905C127.411 69.0216 127.533 69.4424 127.779 69.753C128.024 70.0636 128.398 70.2189 128.899 70.2189C129.369 70.2189 129.773 70.0661 130.108 69.7605C130.444 69.4499 130.612 69.0942 130.612 68.6934C130.612 68.0973 130.454 67.5938 130.138 67.183C129.828 66.7722 129.43 66.5668 128.944 66.5668Z" fill="#312E52"/>
<g clip-path="url(#clip0_4708_567)">
<path d="M113.263 48.5789C112.515 51.5786 109.476 53.4021 106.481 52.6543C103.481 51.9066 101.657 48.8675 102.405 45.8722C103.153 42.8725 106.188 41.049 109.187 41.7968C112.183 42.5402 114.011 45.5792 113.263 48.5789Z" fill="url(#paint0_linear_4708_567)"/>
<path d="M110.499 46.5279C110.608 45.7847 110.044 45.3824 109.266 45.1157L109.52 44.1057L108.908 43.9527L108.663 44.9365C108.501 44.8971 108.335 44.8578 108.169 44.8228L108.414 43.8347L107.801 43.6816L107.552 44.6872C107.417 44.6566 107.286 44.626 107.159 44.5954V44.5911L106.311 44.3812L106.149 45.037C106.149 45.037 106.603 45.142 106.595 45.1463C106.844 45.2075 106.888 45.3737 106.879 45.5048L106.59 46.6547C106.608 46.6591 106.63 46.6635 106.656 46.6766C106.634 46.6722 106.612 46.6679 106.59 46.6591L106.188 48.2681C106.157 48.3424 106.079 48.4561 105.908 48.4124C105.913 48.4211 105.462 48.3031 105.462 48.3031L105.156 49.007L105.956 49.2081C106.105 49.2475 106.249 49.2824 106.394 49.3218L106.14 50.3405L106.752 50.4935L107.006 49.4836C107.172 49.5273 107.338 49.571 107.495 49.6103L107.246 50.616L107.858 50.769L108.112 49.7503C109.161 49.947 109.948 49.8683 110.276 48.9195C110.543 48.1588 110.263 47.7172 109.712 47.4286C110.119 47.3368 110.42 47.0701 110.499 46.5279ZM109.096 48.4954C108.908 49.2562 107.622 48.8452 107.207 48.7403L107.543 47.3893C107.959 47.4942 109.297 47.6997 109.096 48.4954ZM109.288 46.5148C109.113 47.21 108.046 46.8559 107.701 46.7684L108.007 45.5442C108.352 45.6316 109.467 45.7934 109.288 46.5148Z" fill="#312E52"/>
</g>
<path d="M220.799 62.1825C217.738 59.9082 217.558 43.5337 213.597 43.5337C209.635 43.5337 210.536 71.2794 206.394 71.2794C202.253 71.2794 202.523 58.983 198.832 58.9985C195.14 59.0141 195.951 76.7376 191.99 76.7376C188.028 76.7376 188.052 64.9116 184.967 64.9116C181.546 64.9116 180.286 54.45 177.585 54.9049C174.884 55.3597 173.264 66.2761 170.383 66.2761C167.502 66.2761 165.521 59.4534 163.18 59.4534" stroke="#F5683B" stroke-width="0.946938" stroke-linecap="round"/>
<g opacity="0.1">
<path d="M220.798 40.9294V79.3418" stroke="white" stroke-opacity="0.3" stroke-width="0.435679"/>
<path d="M206.394 40.9294V79.3418" stroke="white" stroke-opacity="0.3" stroke-width="0.435679"/>
<path d="M191.989 40.9294V79.3418" stroke="white" stroke-opacity="0.3" stroke-width="0.435679"/>
<path d="M163.18 40.9294V79.3418" stroke="white" stroke-opacity="0.3" stroke-width="0.435679"/>
<path d="M177.584 40.9294V79.3418" stroke="white" stroke-opacity="0.3" stroke-width="0.435679"/>
</g>
</g>
<defs>
<filter id="filter0_d_4708_567" x="0.601798" y="0.932135" width="339.763" height="131" filterUnits="userSpaceOnUse" color-interpolation-filters="sRGB">
<feFlood flood-opacity="0" result="BackgroundImageFix"/>
<feColorMatrix in="SourceAlpha" type="matrix" values="0 0 0 0 0 0 0 0 0 0 0 0 0 0 0 0 0 0 127 0" result="hardAlpha"/>
<feOffset dx="-7.3982" dy="4.93213"/>
<feGaussianBlur stdDeviation="12.5"/>
<feColorMatrix type="matrix" values="0 0 0 0 0.196078 0 0 0 0 0.466745 0 0 0 0 0.992157 0 0 0 0.1 0"/>
<feBlend mode="normal" in2="BackgroundImageFix" result="effect1_dropShadow_4708_567"/>
<feBlend mode="normal" in="SourceGraphic" in2="effect1_dropShadow_4708_567" result="shape"/>
</filter>
<filter id="filter1_b_4708_567" x="8.33933" y="-3.66067" width="339.084" height="130.321" filterUnits="userSpaceOnUse" color-interpolation-filters="sRGB">
<feFlood flood-opacity="0" result="BackgroundImageFix"/>
<feGaussianBlur in="BackgroundImageFix" stdDeviation="12.3303"/>
<feComposite in2="SourceAlpha" operator="in" result="effect1_backgroundBlur_4708_567"/>
<feBlend mode="normal" in="SourceGraphic" in2="effect1_backgroundBlur_4708_567" result="shape"/>
</filter>
<linearGradient id="paint0_linear_4708_567" x1="107.831" y1="41.6265" x2="107.831" y2="52.8209" gradientUnits="userSpaceOnUse">
<stop stop-color="#F9AA4B"/>
<stop offset="1" stop-color="#F7931A"/>
</linearGradient>
<clipPath id="clip0_4708_567">
<rect width="11.1928" height="11.1928" fill="white" transform="translate(102.237 41.6289)"/>
</clipPath>
</defs>
</svg>
