<svg width="48" height="48" viewBox="0 0 48 48" fill="none" xmlns="http://www.w3.org/2000/svg">
<path fill-rule="evenodd" clip-rule="evenodd" d="M24 46.5C36.4264 46.5 46.5 36.4264 46.5 24C46.5 11.5736 36.4264 1.5 24 1.5C11.5736 1.5 1.5 11.5736 1.5 24C1.5 36.4264 11.5736 46.5 24 46.5ZM24 48C37.2548 48 48 37.2548 48 24C48 10.7452 37.2548 0 24 0C10.7452 0 0 10.7452 0 24C0 37.2548 10.7452 48 24 48Z" fill="#5FC6C1"/>
<g clip-path="url(#clip0_4725_1124)">
<path d="M27.9973 15.9851H30.1883V12.1691C29.8103 12.1171 28.5103 12.0001 26.9963 12.0001C23.8373 12.0001 21.6733 13.9871 21.6733 17.6391V21.0001H18.1873V25.2661H21.6733V36.0001H25.9473V25.2671H29.2923L29.8233 21.0011H25.9463V18.0621C25.9473 16.8291 26.2793 15.9851 27.9973 15.9851Z" fill="#269E96"/>
</g>
<defs>
<clipPath id="clip0_4725_1124">
<rect width="24" height="24" fill="white" transform="translate(12 12)"/>
</clipPath>
</defs>
</svg>
